<?xml version="1.0" encoding="utf-8"?>
<!-- Generator: Adobe Illustrator 24.0.3, SVG Export Plug-In . SVG Version: 6.00 Build 0)  -->
<svg version="1.1" id="Layer_1" xmlns="http://www.w3.org/2000/svg" xmlns:xlink="http://www.w3.org/1999/xlink" x="0px" y="0px"
	 viewBox="0 0 213 154.2" style="enable-background:new 0 0 213 154.2;" xml:space="preserve">
<style type="text/css">
	.st0{fill:#5FA2D8;}
	.st1{fill:none;stroke:#5FA2D8;stroke-width:3.8644;stroke-miterlimit:10;}
	.st2{fill:#FFFFFF;}
	.st3{fill:none;stroke:#5FA2D8;stroke-width:6.2797;stroke-miterlimit:10;}
</style>
<path class="st0" d="M106.4,81.5c0,12.1-7.5,22.2-17.3,24c-1.1,0.2-2.2,0.3-3.3,0.3H27.5c-1.8,0-3.6-0.4-5.2-1
	c-6.2-2.5-10.7-9.6-10.7-17.8c0-10.4,7.1-18.8,15.9-18.8c0.5,0,1.1,0,1.6,0.1c0.9-18.3,12.5-32.8,26.6-32.8
	c11.4,0,21.1,9.4,24.9,22.6c1.7-0.5,3.5-0.8,5.3-0.8C97.2,57.2,106.4,68,106.4,81.5z"/>
<g>
	<path class="st1" d="M149,121.2c-0.6-7.4-5-13.7-11.1-17.2l-0.7-91.2c0-3.7-4.1-6.7-9-6.7h-4.6c-5,0-9,3-9,6.7l0.7,91.2
		c-7.2,4.2-11.8,12.1-11,20.9c1,12.1,11.9,21.2,24.2,20.1C140.9,144,150,133.4,149,121.2z"/>
</g>
<path class="st0" d="M130.4,108.6l0-64.1c0-1.4-1.1-2.5-2.5-2.5h-2.5c-1.4,0-2.5,1.1-2.5,2.5l0,64.1c-6.5,1.7-11.2,7.6-11.2,14.5
	c0,8.2,6.7,14.9,15,14.9c8.2,0,15-6.7,15-14.9C141.6,116.2,136.9,110.3,130.4,108.6z"/>
<circle class="st2" cx="120.8" cy="124.2" r="5.1"/>
<line class="st1" x1="142.7" y1="97.2" x2="157.1" y2="97.2"/>
<line class="st1" x1="142.7" y1="73.1" x2="157.1" y2="73.1"/>
<line class="st1" x1="142.7" y1="50" x2="157.1" y2="50"/>
<line class="st1" x1="143.1" y1="30" x2="157.5" y2="30"/>
<line class="st1" x1="144.1" y1="84.3" x2="151.3" y2="84.3"/>
<line class="st1" x1="144.1" y1="62" x2="151.3" y2="62"/>
<line class="st1" x1="143.1" y1="40" x2="150.3" y2="40"/>
<g>
	<line class="st3" x1="21.5" y1="132.9" x2="31.5" y2="110.8"/>
	<line class="st3" x1="40" y1="133.2" x2="49.5" y2="112.1"/>
	<line class="st3" x1="58" y1="133.2" x2="67.6" y2="112.1"/>
	<line class="st3" x1="73.7" y1="133.2" x2="83.2" y2="112.1"/>
</g>
<g>
	<path class="st0" d="M183.5,141.8c-1.3,0.7-4.2,1.4-7.9,1.4c-9.7,0-15.6-6.1-15.6-15.4c0-10,7-16.1,16.3-16.1
		c3.7,0,6.3,0.7,7.4,1.3l-1.2,4.4c-1.4-0.6-3.5-1.2-6-1.2c-6.2,0-10.7,3.9-10.7,11.2c0,6.7,3.9,11,10.6,11c2.3,0,4.6-0.4,6.1-1.1
		L183.5,141.8z"/>
	<path class="st0" d="M199.3,118c0,3.8-3.1,6.4-6.5,6.4c-3.8,0-6.5-2.8-6.5-6.2c0-3.6,2.9-6.5,6.5-6.5
		C196.7,111.7,199.3,114.6,199.3,118z M189.4,118.1c0,2,1.4,3.6,3.4,3.6c2,0,3.4-1.6,3.4-3.7c0-1.7-1.1-3.6-3.4-3.6
		C190.6,114.4,189.4,116.2,189.4,118.1z"/>
</g>
</svg>
